<svg width="61" height="61" viewBox="0 0 61 61" fill="none" xmlns="http://www.w3.org/2000/svg">
<rect width="61" height="61" rx="10" fill="white"/>
<g clip-path="url(#clip0_302_952)">
<path d="M28.5686 11.75H24.8186C15.4436 11.75 11.6936 15.5 11.6936 24.875V36.125C11.6936 45.5 15.4436 49.25 24.8186 49.25H36.0686C45.4436 49.25 49.1936 45.5 49.1936 36.125V32.375" stroke="#A259FF" stroke-width="2.8125" stroke-linecap="round" stroke-linejoin="round"/>
<path d="M49.0251 14.6749C46.7188 20.4312 40.9251 28.2687 36.0876 32.1499L33.1251 34.5124C32.7501 34.7937 32.3751 35.0187 31.9438 35.1874C31.9438 34.9062 31.9251 34.6249 31.8876 34.3249C31.7188 33.0687 31.1563 31.8874 30.1438 30.8937C29.1126 29.8624 27.8751 29.2812 26.6001 29.1124C26.3001 29.0937 26.0001 29.0749 25.7001 29.0937C25.8688 28.6249 26.1126 28.1937 26.4313 27.8374L28.7938 24.8749C32.6751 20.0374 40.5313 14.2062 46.2688 11.8999C47.1501 11.5624 48.0126 11.8249 48.5563 12.3687C49.1188 12.9312 49.3813 13.7937 49.0251 14.6749Z" stroke="#A259FF" stroke-width="2.8125" stroke-linecap="round" stroke-linejoin="round"/>
<path d="M31.9624 35.1689C31.9624 36.8189 31.3249 38.3939 30.1437 39.5939C29.2249 40.5127 27.9874 41.1502 26.5062 41.3377L22.8124 41.7314C20.8062 41.9564 19.0812 40.2502 19.3062 38.2064L19.6999 34.5127C20.0562 31.2314 22.7937 29.1314 25.7187 29.0751C26.0187 29.0564 26.3187 29.0751 26.6187 29.0939C27.8937 29.2626 29.1312 29.8439 30.1624 30.8751C31.1749 31.8876 31.7374 33.0501 31.9062 34.3064C31.9437 34.6064 31.9624 34.9064 31.9624 35.1689Z" stroke="#A259FF" stroke-width="2.8125" stroke-linecap="round" stroke-linejoin="round"/>
<path d="M37.6625 30.4625C37.6625 26.5437 34.4938 23.3562 30.5563 23.3562" stroke="#A259FF" stroke-width="2.8125" stroke-linecap="round" stroke-linejoin="round"/>
</g>
<defs>
<clipPath id="clip0_302_952">
<rect width="45" height="45" fill="white" transform="translate(8 8)"/>
</clipPath>
</defs>
</svg>
