<svg width="61" height="61" viewBox="0 0 61 61" fill="none" xmlns="http://www.w3.org/2000/svg">
<rect width="61" height="61" rx="10" fill="white"/>
<path d="M11.8334 25.2499V20.4583C11.8334 15.6858 15.6859 11.8333 20.4584 11.8333H25.25" stroke="#9146FF" stroke-width="2.875" stroke-linecap="round" stroke-linejoin="round"/>
<path d="M36.75 11.8333H41.5417C46.3142 11.8333 50.1667 15.6858 50.1667 20.4583V25.2499" stroke="#9146FF" stroke-width="2.875" stroke-linecap="round" stroke-linejoin="round"/>
<path d="M50.1666 38.6667V41.5417C50.1666 46.3142 46.3141 50.1667 41.5416 50.1667H38.6666" stroke="#9146FF" stroke-width="2.875" stroke-linecap="round" stroke-linejoin="round"/>
<path d="M25.25 50.1667H20.4584C15.6859 50.1667 11.8334 46.3142 11.8334 41.5417V36.75" stroke="#9146FF" stroke-width="2.875" stroke-linecap="round" stroke-linejoin="round"/>
<path d="M40.5833 26.2083V35.7916C40.5833 39.6249 38.6666 41.5416 34.8333 41.5416H27.1666C23.3333 41.5416 21.4166 39.6249 21.4166 35.7916V26.2083C21.4166 22.3749 23.3333 20.4583 27.1666 20.4583H34.8333C38.6666 20.4583 40.5833 22.3749 40.5833 26.2083Z" stroke="#9146FF" stroke-width="2.875" stroke-linecap="round" stroke-linejoin="round"/>
<path d="M44.4167 31H17.5834" stroke="#9146FF" stroke-width="2.875" stroke-linecap="round" stroke-linejoin="round"/>
</svg>
