<svg width="190" height="69" viewBox="0 0 190 69" fill="none" xmlns="http://www.w3.org/2000/svg">
<rect x="0.0317383" width="189.587" height="68.9967" rx="10.4146" fill="#5E41B3"/>
<path d="M43.4884 35.5444C43.5258 32.6293 45.0852 29.871 47.5591 28.3441C45.9984 26.1065 43.3844 24.6878 40.6648 24.6024C37.7641 24.2968 34.9519 26.3449 33.4738 26.3449C31.967 26.3449 29.6912 24.6328 27.2404 24.6834C24.046 24.787 21.0681 26.6102 19.5139 29.4139C16.1731 35.2205 18.6651 43.7543 21.8653 48.448C23.4664 50.7463 25.3376 53.3137 27.7862 53.2226C30.1822 53.1228 31.077 51.6888 33.9692 51.6888C36.8346 51.6888 37.6741 53.2226 40.1723 53.1647C42.7433 53.1228 44.3632 50.8562 45.9082 48.5361C47.0586 46.8984 47.9438 45.0884 48.5311 43.1732C45.5096 41.8903 43.4919 38.8378 43.4884 35.5444Z" fill="white"/>
<path d="M38.7697 21.5156C40.1715 19.8262 40.8622 17.6548 40.6949 15.4624C38.5532 15.6882 36.5749 16.7158 35.1541 18.3404C33.7648 19.9277 33.0418 22.061 33.1785 24.1695C35.321 24.1917 37.4272 23.192 38.7697 21.5156Z" fill="white"/>
<path d="M128.948 32.5334V36.0659H126.742V38.3824H128.948V46.2537C128.948 48.9414 130.159 50.0165 133.206 50.0165C133.741 50.0165 134.251 49.9525 134.697 49.8757V47.5847C134.315 47.6231 134.073 47.6487 133.652 47.6487C132.288 47.6487 131.689 47.0088 131.689 45.5497V38.3824H134.697V36.0659H131.689V32.5334H128.948Z" fill="white"/>
<path d="M142.46 50.2085C146.514 50.2085 149 47.4823 149 42.9644C149 38.472 146.501 35.7331 142.46 35.7331C138.405 35.7331 135.907 38.472 135.907 42.9644C135.907 47.4823 138.393 50.2085 142.46 50.2085ZM142.46 47.7639C140.075 47.7639 138.737 46.0105 138.737 42.9644C138.737 39.9439 140.075 38.1776 142.46 38.1776C144.831 38.1776 146.182 39.9439 146.182 42.9644C146.182 45.9977 144.831 47.7639 142.46 47.7639Z" fill="white"/>
<path d="M151.127 49.9397H153.868V41.7101C153.868 39.7519 155.334 38.4336 157.412 38.4336C157.897 38.4336 158.712 38.5232 158.942 38.6V35.8867C158.649 35.8099 158.126 35.7715 157.718 35.7715C155.908 35.7715 154.365 36.7698 153.97 38.1393H153.766V36.0019H151.127V49.9397Z" fill="white"/>
<path d="M165.748 38.0753C167.775 38.0753 169.101 39.4959 169.165 41.6845H162.153C162.306 39.5087 163.721 38.0753 165.748 38.0753ZM169.152 46.1769C168.642 47.2648 167.507 47.8663 165.85 47.8663C163.657 47.8663 162.242 46.3177 162.153 43.8731V43.7195H171.957V42.7596C171.957 38.3824 169.624 35.7331 165.761 35.7331C161.847 35.7331 159.361 38.5616 159.361 43.0156C159.361 47.4695 161.796 50.2085 165.773 50.2085C168.948 50.2085 171.166 48.6726 171.791 46.1769H169.152Z" fill="white"/>
<path d="M110.972 44.7927C111.184 48.2152 114.025 50.404 118.253 50.404C122.772 50.404 125.6 48.1091 125.6 44.4478C125.6 41.5692 123.988 39.9773 120.077 39.062L117.976 38.5446C115.492 37.9609 114.487 37.1783 114.487 35.8119C114.487 34.0874 116.047 32.9598 118.385 32.9598C120.605 32.9598 122.138 34.0609 122.416 35.8252H125.296C125.125 32.6017 122.297 30.3333 118.425 30.3333C114.263 30.3333 111.488 32.6017 111.488 36.0109C111.488 38.8232 113.06 40.4946 116.509 41.3038L118.967 41.9008C121.491 42.4977 122.601 43.3733 122.601 44.8325C122.601 46.5305 120.856 47.7642 118.478 47.7642C115.928 47.7642 114.157 46.6101 113.906 44.7927H110.972Z" fill="white"/>
<path d="M82.5781 35.7715C80.6912 35.7715 79.0594 36.7186 78.2179 38.3056H78.0139V36.0019H75.3749V54.5728H78.1159V47.8279H78.3327C79.0594 49.2998 80.6275 50.1701 82.6036 50.1701C86.1095 50.1701 88.3406 47.3927 88.3406 42.9644C88.3406 38.536 86.1095 35.7715 82.5781 35.7715ZM81.8004 47.6999C79.5056 47.6999 78.0649 45.8825 78.0649 42.9772C78.0649 40.0591 79.5056 38.2416 81.8131 38.2416C84.1335 38.2416 85.5231 40.0207 85.5231 42.9644C85.5231 45.9209 84.1335 47.6999 81.8004 47.6999Z" fill="white"/>
<path d="M97.9319 35.7715C96.0451 35.7715 94.4132 36.7186 93.5718 38.3056H93.3678V36.0019H90.7288V54.5728H93.4698V47.8279H93.6865C94.4132 49.2998 95.9813 50.1701 97.9574 50.1701C101.463 50.1701 103.694 47.3927 103.694 42.9644C103.694 38.536 101.463 35.7715 97.9319 35.7715ZM97.1542 47.6999C94.8594 47.6999 93.4188 45.8825 93.4188 42.9772C93.4188 40.0591 94.8594 38.2416 97.167 38.2416C99.4873 38.2416 100.877 40.0207 100.877 42.9644C100.877 45.9209 99.4873 47.6999 97.1542 47.6999Z" fill="white"/>
<path d="M70.457 49.9397H73.6019L66.7175 30.7975H63.5329L56.6484 49.9397H59.6876L61.4451 44.859H68.7128L70.457 49.9397ZM64.9732 34.2731H65.1979L67.9596 42.3651H62.1983L64.9732 34.2731Z" fill="white"/>
<path d="M56.5725 17.2956V24.862H59.2938C61.5397 24.862 62.8403 23.4725 62.8403 21.0552C62.8403 18.6747 61.5293 17.2956 59.2938 17.2956H56.5725ZM57.7425 18.3653H59.1632C60.7249 18.3653 61.6494 19.3616 61.6494 21.071C61.6494 22.8066 60.7406 23.7924 59.1632 23.7924H57.7425V18.3653Z" fill="white"/>
<path d="M66.8234 24.9721C68.4844 24.9721 69.5029 23.8553 69.5029 22.0043C69.5029 20.1638 68.4792 19.0417 66.8234 19.0417C65.1625 19.0417 64.1387 20.1638 64.1387 22.0043C64.1387 23.8553 65.1573 24.9721 66.8234 24.9721ZM66.8234 23.9706C65.8467 23.9706 65.2983 23.2523 65.2983 22.0043C65.2983 20.7668 65.8467 20.0432 66.8234 20.0432C67.7949 20.0432 68.3486 20.7668 68.3486 22.0043C68.3486 23.247 67.7949 23.9706 66.8234 23.9706Z" fill="white"/>
<path d="M78.1764 19.1518H77.0535L76.0402 23.5092H75.9514L74.7814 19.1518H73.7054L72.5355 23.5092H72.4519L71.4334 19.1518H70.2947L71.8617 24.862H73.016L74.186 20.6567H74.2748L75.45 24.862H76.6147L78.1764 19.1518Z" fill="white"/>
<path d="M79.4697 24.862H80.5927V21.5219C80.5927 20.6305 81.1202 20.0747 81.9507 20.0747C82.7812 20.0747 83.1781 20.5309 83.1781 21.4485V24.862H84.3011V21.1653C84.3011 19.8073 83.6012 19.0417 82.332 19.0417C81.4754 19.0417 80.9113 19.4245 80.6344 20.059H80.5509V19.1518H79.4697V24.862Z" fill="white"/>
<path d="M86.0696 24.862H87.1926V16.9233H86.0696V24.862Z" fill="white"/>
<path d="M91.416 24.9721C93.077 24.9721 94.0955 23.8553 94.0955 22.0043C94.0955 20.1638 93.0718 19.0417 91.416 19.0417C89.7551 19.0417 88.7313 20.1638 88.7313 22.0043C88.7313 23.8553 89.7499 24.9721 91.416 24.9721ZM91.416 23.9706C90.4393 23.9706 89.8909 23.2523 89.8909 22.0043C89.8909 20.7668 90.4393 20.0432 91.416 20.0432C92.3875 20.0432 92.9412 20.7668 92.9412 22.0043C92.9412 23.247 92.3875 23.9706 91.416 23.9706Z" fill="white"/>
<path d="M97.4414 24.0073C96.8303 24.0073 96.3864 23.7085 96.3864 23.1946C96.3864 22.6912 96.7415 22.4238 97.525 22.3714L98.9144 22.2822V22.7594C98.9144 23.4673 98.2876 24.0073 97.4414 24.0073ZM97.1542 24.9564C97.9011 24.9564 98.5226 24.6313 98.8621 24.0598H98.9509V24.862H100.032V20.9609C100.032 19.7548 99.2278 19.0417 97.8018 19.0417C96.5117 19.0417 95.5925 19.6709 95.4776 20.6515H96.564C96.6893 20.2477 97.1228 20.017 97.7496 20.017C98.5174 20.017 98.9144 20.3578 98.9144 20.9609V21.4537L97.3735 21.5429C96.0208 21.6268 95.2582 22.2193 95.2582 23.247C95.2582 24.2905 96.0573 24.9564 97.1542 24.9564Z" fill="white"/>
<path d="M103.843 24.9564C104.626 24.9564 105.29 24.5841 105.629 23.9601H105.718V24.862H106.794V16.9233H105.671V20.059H105.587C105.279 19.4297 104.621 19.0575 103.843 19.0575C102.407 19.0575 101.482 20.2005 101.482 22.0043C101.482 23.8133 102.396 24.9564 103.843 24.9564ZM104.162 20.0695C105.102 20.0695 105.692 20.8193 105.692 22.0096C105.692 23.2051 105.107 23.9444 104.162 23.9444C103.211 23.9444 102.642 23.2156 102.642 22.0043C102.642 20.8035 103.216 20.0695 104.162 20.0695Z" fill="white"/>
<path d="M114.076 24.9721C115.737 24.9721 116.756 23.8553 116.756 22.0043C116.756 20.1638 115.732 19.0417 114.076 19.0417C112.415 19.0417 111.391 20.1638 111.391 22.0043C111.391 23.8553 112.41 24.9721 114.076 24.9721ZM114.076 23.9706C113.099 23.9706 112.551 23.2523 112.551 22.0043C112.551 20.7668 113.099 20.0432 114.076 20.0432C115.048 20.0432 115.601 20.7668 115.601 22.0043C115.601 23.247 115.048 23.9706 114.076 23.9706Z" fill="white"/>
<path d="M118.242 24.862H119.365V21.5219C119.365 20.6305 119.893 20.0747 120.723 20.0747C121.554 20.0747 121.95 20.5309 121.95 21.4485V24.862H123.073V21.1653C123.073 19.8073 122.374 19.0417 121.104 19.0417C120.248 19.0417 119.684 19.4245 119.407 20.059H119.323V19.1518H118.242V24.862Z" fill="white"/>
<path d="M128.245 17.7308V19.1781H127.342V20.1271H128.245V23.3519C128.245 24.453 128.742 24.8935 129.99 24.8935C130.209 24.8935 130.418 24.8673 130.601 24.8358V23.8972C130.444 23.913 130.345 23.9234 130.173 23.9234C129.614 23.9234 129.368 23.6613 129.368 23.0635V20.1271H130.601V19.1781H129.368V17.7308H128.245Z" fill="white"/>
<path d="M132.108 24.862H133.231V21.5272C133.231 20.662 133.743 20.0799 134.663 20.0799C135.456 20.0799 135.88 20.5414 135.88 21.4537V24.862H137.003V21.1758C137.003 19.8178 136.256 19.047 135.044 19.047C134.187 19.047 133.587 19.4297 133.31 20.0695H133.221V16.9233H132.108V24.862Z" fill="white"/>
<path d="M141.054 20.0013C141.884 20.0013 142.427 20.5833 142.453 21.48H139.581C139.643 20.5886 140.223 20.0013 141.054 20.0013ZM142.448 23.3204C142.239 23.7661 141.774 24.0126 141.095 24.0126C140.197 24.0126 139.617 23.3781 139.581 22.3766V22.3137H143.597V21.9204C143.597 20.1271 142.641 19.0417 141.059 19.0417C139.455 19.0417 138.437 20.2005 138.437 22.0253C138.437 23.85 139.434 24.9721 141.064 24.9721C142.365 24.9721 143.273 24.3429 143.529 23.3204H142.448Z" fill="white"/>
</svg>
