<svg width="190" height="70" viewBox="0 0 190 70" fill="none" xmlns="http://www.w3.org/2000/svg">
<rect y="0.783691" width="189.944" height="68.9967" rx="10.4146" fill="#5E41B3"/>
<g filter="url(#filter0_ii_264_3044)">
<path d="M18.957 18.2553C18.5465 18.6803 18.304 19.3399 18.304 20.1941V50.7127C18.304 51.5682 18.5465 52.2265 18.957 52.6515L19.0613 52.7508L36.5347 35.6549V35.4534V35.2519L19.0613 18.1545L18.957 18.2553Z" fill="url(#paint0_linear_264_3044)"/>
<path d="M42.3591 41.3548L36.5356 35.6543V35.4528V35.2514L42.3606 29.5522L42.4917 29.6254L49.3928 33.4616C51.3631 34.5573 51.3631 36.3498 49.3928 37.4468L42.4917 41.2831L42.3591 41.3548Z" fill="url(#paint1_linear_264_3044)"/>
<g filter="url(#filter1_i_264_3044)">
<path d="M42.4911 41.282L36.5336 35.4531L18.9573 52.6512C19.6061 53.3246 20.6794 53.4074 21.8881 52.7368L42.4911 41.282Z" fill="url(#paint2_linear_264_3044)"/>
</g>
<path d="M42.4911 29.6242L21.8881 18.1708C20.6794 17.4988 19.6061 17.5829 18.9573 18.2563L36.535 35.4545L42.4911 29.6242Z" fill="url(#paint3_linear_264_3044)"/>
</g>
<path d="M95.1875 37.1236C92.0545 37.1236 89.5009 39.4449 89.5009 42.6422C89.5009 45.8199 92.0545 48.1608 95.1875 48.1608C98.3218 48.1608 100.875 45.8199 100.875 42.6422C100.874 39.4449 98.3205 37.1236 95.1875 37.1236ZM95.1875 45.9886C93.4704 45.9886 91.9905 44.6093 91.9905 42.6435C91.9905 40.6569 93.4718 39.2983 95.1875 39.2983C96.9045 39.2983 98.3844 40.6569 98.3844 42.6435C98.3844 44.608 96.9045 45.9886 95.1875 45.9886ZM82.7806 37.1236C79.6476 37.1236 77.094 39.4449 77.094 42.6422C77.094 45.8199 79.6476 48.1608 82.7806 48.1608C85.915 48.1608 88.4685 45.8199 88.4685 42.6422C88.4685 39.4449 85.915 37.1236 82.7806 37.1236ZM82.7806 45.9886C81.0636 45.9886 79.5836 44.6093 79.5836 42.6435C79.5836 40.6569 81.0649 39.2983 82.7806 39.2983C84.4976 39.2983 85.9776 40.6569 85.9776 42.6435C85.9789 44.608 84.4976 45.9886 82.7806 45.9886ZM68.024 38.8182V41.159H73.7758C73.604 42.4761 73.1537 43.4376 72.4664 44.1058C71.6299 44.9207 70.3204 45.8199 68.024 45.8199C64.4833 45.8199 61.7153 43.0392 61.7153 39.5903C61.7153 36.1413 64.4833 33.3606 68.024 33.3606C69.9341 33.3606 71.3288 34.0924 72.3585 35.0332L74.0542 33.3814C72.6156 32.0436 70.7067 31.0198 68.024 31.0198C63.1739 31.0198 59.0964 34.8658 59.0964 39.5903C59.0964 44.3148 63.1739 48.1608 68.024 48.1608C70.6415 48.1608 72.6169 47.3238 74.1608 45.7564C75.7486 44.2096 76.2428 42.0349 76.2428 40.2793C76.2428 39.7369 76.2002 39.2347 76.1136 38.8169L68.024 38.8182ZM128.377 40.6361C127.906 39.4034 126.467 37.1236 123.527 37.1236C120.609 37.1236 118.183 39.3606 118.183 42.6422C118.183 45.7356 120.587 48.1608 123.806 48.1608C126.402 48.1608 127.904 46.6141 128.528 45.7148L126.596 44.4601C125.953 45.3801 125.072 45.986 123.806 45.986C122.54 45.986 121.638 45.4216 121.059 44.3135L128.634 41.2616L128.377 40.6361ZM120.651 42.4761C120.587 40.3429 122.347 39.2568 123.614 39.2568C124.601 39.2568 125.437 39.7382 125.717 40.4272L120.651 42.4761ZM114.493 47.8273H116.981V31.6063H114.493V47.8273ZM110.414 38.3576H110.329C109.771 37.7088 108.697 37.1236 107.347 37.1236C104.513 37.1236 101.917 39.5488 101.917 42.6642C101.917 45.7577 104.513 48.1621 107.347 48.1621C108.699 48.1621 109.771 47.5769 110.329 46.9086H110.414V47.7027C110.414 49.8139 109.255 50.9428 107.389 50.9428C105.865 50.9428 104.921 49.8775 104.535 48.9782L102.367 49.8567C102.989 51.3191 104.641 53.1175 107.389 53.1175C110.308 53.1175 112.776 51.4449 112.776 47.368V37.4596H110.416L110.414 38.3576ZM107.561 45.9886C105.844 45.9886 104.407 44.5872 104.407 42.6642C104.407 40.7192 105.844 39.2983 107.561 39.2983C109.255 39.2983 110.586 40.7192 110.586 42.6642C110.586 44.5872 109.255 45.9886 107.561 45.9886ZM140.038 31.6063H134.083V47.8273H136.567V41.682H140.037C142.792 41.682 145.501 39.7395 145.501 36.6448C145.501 33.5501 142.793 31.6063 140.038 31.6063ZM140.102 39.4242H136.567V33.8641H140.102C141.96 33.8641 143.015 35.3628 143.015 36.6448C143.015 37.9008 141.96 39.4242 140.102 39.4242ZM155.464 37.095C153.664 37.095 151.8 37.8671 151.029 39.5786L153.235 40.4752C153.707 39.5786 154.586 39.2853 155.506 39.2853C156.792 39.2853 158.098 40.0366 158.12 41.3718V41.5392C157.669 41.2888 156.705 40.9138 155.527 40.9138C153.15 40.9138 150.728 42.1867 150.728 44.5652C150.728 46.736 152.678 48.1335 154.863 48.1335C156.533 48.1335 157.455 47.403 158.033 46.5466H158.118V47.7987H160.519V41.5795C160.52 38.7014 158.312 37.095 155.464 37.095ZM155.162 45.9847C154.35 45.9847 153.214 45.5877 153.214 44.6067C153.214 43.3545 154.628 42.8744 155.85 42.8744C156.941 42.8744 157.456 43.1041 158.12 43.4168C157.927 44.9207 156.598 45.9847 155.162 45.9847ZM169.26 37.4493L166.41 44.4821H166.325L163.368 37.4493H160.691L165.125 47.2784L162.597 52.7464H165.189L172.024 37.4493H169.26ZM146.873 47.8273H149.357V31.6063H146.873V47.8273Z" fill="white"/>
<path d="M67.7132 22.0108C67.7132 23.0784 67.3832 23.9282 66.7217 24.5627C65.9711 25.317 64.9916 25.6941 63.7885 25.6941C62.6359 25.6941 61.6551 25.3119 60.8499 24.5474C60.0434 23.7817 59.6401 22.8338 59.6401 21.7024C59.6401 20.5698 60.0434 19.6219 60.8499 18.8575C61.6551 18.0917 62.6359 17.7095 63.7885 17.7095C64.3608 17.7095 64.9077 17.8165 65.4268 18.0293C65.9472 18.2434 66.3637 18.5275 66.6751 18.8829L65.9738 19.5556C65.4454 18.9505 64.7174 18.6485 63.7871 18.6485C62.946 18.6485 62.2194 18.9314 61.6058 19.497C60.9923 20.0627 60.6862 20.7979 60.6862 21.7012C60.6862 22.6045 60.9923 23.3396 61.6058 23.9053C62.2194 24.471 62.946 24.7538 63.7871 24.7538C64.6788 24.7538 65.4228 24.4697 66.0177 23.9002C66.4036 23.5295 66.6272 23.0135 66.6871 22.3522H63.7871V21.4336H67.656C67.6959 21.6337 67.7132 21.826 67.7132 22.0108Z" fill="white"/>
<path d="M73.8487 18.818H70.2127V21.2413H73.492V22.1599H70.2127V24.5832H73.8487V25.5235H69.1866V17.879H73.8487V18.818Z" fill="white"/>
<path d="M78.1752 25.5235H77.1491V18.818H74.9186V17.879H80.4058V18.818H78.1752V25.5235Z" fill="white"/>
<path d="M84.3757 25.5235V17.879H85.4018V25.5235H84.3757Z" fill="white"/>
<path d="M89.9523 25.5235H88.9262V18.818H86.6956V17.879H92.1828V18.818H89.9523V25.5235Z" fill="white"/>
<path d="M102.57 24.536C101.785 25.3081 100.809 25.6942 99.6421 25.6942C98.4749 25.6942 97.4994 25.3081 96.7155 24.536C95.9303 23.764 95.539 22.8186 95.539 21.7012C95.539 20.5839 95.9303 19.6385 96.7155 18.8664C97.4994 18.0943 98.4749 17.707 99.6421 17.707C100.803 17.707 101.777 18.0956 102.565 18.8715C103.353 19.6474 103.746 20.5902 103.746 21.7012C103.746 22.8186 103.354 23.764 102.57 24.536ZM97.4728 23.8952C98.0637 24.4685 98.7863 24.7539 99.6421 24.7539C100.498 24.7539 101.222 24.4672 101.811 23.8952C102.402 23.3219 102.699 22.5905 102.699 21.7012C102.699 20.8119 102.402 20.0806 101.811 19.5073C101.222 18.934 100.498 18.6486 99.6421 18.6486C98.7863 18.6486 98.0637 18.9352 97.4728 19.5073C96.8832 20.0806 96.5864 20.8119 96.5864 21.7012C96.5864 22.5905 96.8832 23.3219 97.4728 23.8952Z" fill="white"/>
<path d="M105.187 25.5235V17.879H106.435L110.316 23.8251H110.36L110.316 22.3523V17.879H111.342V25.5235H110.27L106.21 19.2882H106.166L106.21 20.761V25.5235H105.187Z" fill="white"/>
<path d="M67.7132 22.0108C67.7132 23.0784 67.3832 23.9282 66.7217 24.5627C65.9711 25.317 64.9916 25.6941 63.7885 25.6941C62.6359 25.6941 61.6551 25.3119 60.8499 24.5474C60.0434 23.7817 59.6401 22.8338 59.6401 21.7024C59.6401 20.5698 60.0434 19.6219 60.8499 18.8575C61.6551 18.0917 62.6359 17.7095 63.7885 17.7095C64.3608 17.7095 64.9077 17.8165 65.4268 18.0293C65.9472 18.2434 66.3637 18.5275 66.6751 18.8829L65.9738 19.5556C65.4454 18.9505 64.7174 18.6485 63.7871 18.6485C62.946 18.6485 62.2194 18.9314 61.6058 19.497C60.9923 20.0627 60.6862 20.7979 60.6862 21.7012C60.6862 22.6045 60.9923 23.3396 61.6058 23.9053C62.2194 24.471 62.946 24.7538 63.7871 24.7538C64.6788 24.7538 65.4228 24.4697 66.0177 23.9002C66.4036 23.5295 66.6272 23.0135 66.6871 22.3522H63.7871V21.4336H67.656C67.6959 21.6337 67.7132 21.826 67.7132 22.0108Z" stroke="white" stroke-width="0.0532476" stroke-miterlimit="10"/>
<path d="M73.8487 18.818H70.2127V21.2413H73.492V22.1599H70.2127V24.5832H73.8487V25.5235H69.1866V17.879H73.8487V18.818Z" stroke="white" stroke-width="0.0532476" stroke-miterlimit="10"/>
<path d="M78.1752 25.5235H77.1491V18.818H74.9186V17.879H80.4058V18.818H78.1752V25.5235Z" stroke="white" stroke-width="0.0532476" stroke-miterlimit="10"/>
<path d="M84.3757 25.5235V17.879H85.4018V25.5235H84.3757Z" stroke="white" stroke-width="0.0532476" stroke-miterlimit="10"/>
<path d="M89.9523 25.5235H88.9262V18.818H86.6956V17.879H92.1828V18.818H89.9523V25.5235Z" stroke="white" stroke-width="0.0532476" stroke-miterlimit="10"/>
<path d="M102.57 24.536C101.785 25.3081 100.809 25.6942 99.6421 25.6942C98.4749 25.6942 97.4994 25.3081 96.7155 24.536C95.9303 23.764 95.539 22.8186 95.539 21.7012C95.539 20.5839 95.9303 19.6385 96.7155 18.8664C97.4994 18.0943 98.4749 17.707 99.6421 17.707C100.803 17.707 101.777 18.0956 102.565 18.8715C103.353 19.6474 103.746 20.5902 103.746 21.7012C103.746 22.8186 103.354 23.764 102.57 24.536ZM97.4728 23.8952C98.0637 24.4685 98.7863 24.7539 99.6421 24.7539C100.498 24.7539 101.222 24.4672 101.811 23.8952C102.402 23.3219 102.699 22.5905 102.699 21.7012C102.699 20.8119 102.402 20.0806 101.811 19.5073C101.222 18.934 100.498 18.6486 99.6421 18.6486C98.7863 18.6486 98.0637 18.9352 97.4728 19.5073C96.8832 20.0806 96.5864 20.8119 96.5864 21.7012C96.5864 22.5905 96.8832 23.3219 97.4728 23.8952Z" stroke="white" stroke-width="0.0532476" stroke-miterlimit="10"/>
<path d="M105.187 25.5235V17.879H106.435L110.316 23.8251H110.36L110.316 22.3523V17.879H111.342V25.5235H110.27L106.21 19.2882H106.166L106.21 20.761V25.5235H105.187Z" stroke="white" stroke-width="0.0532476" stroke-miterlimit="10"/>
<defs>
<filter id="filter0_ii_264_3044" x="18.304" y="17.707" width="32.5667" height="35.4929" filterUnits="userSpaceOnUse" color-interpolation-filters="sRGB">
<feFlood flood-opacity="0" result="BackgroundImageFix"/>
<feBlend mode="normal" in="SourceGraphic" in2="BackgroundImageFix" result="shape"/>
<feColorMatrix in="SourceAlpha" type="matrix" values="0 0 0 0 0 0 0 0 0 0 0 0 0 0 0 0 0 0 127 0" result="hardAlpha"/>
<feOffset dy="-0.20699"/>
<feComposite in2="hardAlpha" operator="arithmetic" k2="-1" k3="1"/>
<feColorMatrix type="matrix" values="0 0 0 0 0 0 0 0 0 0 0 0 0 0 0 0 0 0 0.12 0"/>
<feBlend mode="normal" in2="shape" result="effect1_innerShadow_264_3044"/>
<feColorMatrix in="SourceAlpha" type="matrix" values="0 0 0 0 0 0 0 0 0 0 0 0 0 0 0 0 0 0 127 0" result="hardAlpha"/>
<feOffset dy="0.20699"/>
<feComposite in2="hardAlpha" operator="arithmetic" k2="-1" k3="1"/>
<feColorMatrix type="matrix" values="0 0 0 0 1 0 0 0 0 1 0 0 0 0 1 0 0 0 0.25 0"/>
<feBlend mode="normal" in2="effect1_innerShadow_264_3044" result="effect2_innerShadow_264_3044"/>
</filter>
<filter id="filter1_i_264_3044" x="18.9573" y="35.4531" width="23.5337" height="17.7468" filterUnits="userSpaceOnUse" color-interpolation-filters="sRGB">
<feFlood flood-opacity="0" result="BackgroundImageFix"/>
<feBlend mode="normal" in="SourceGraphic" in2="BackgroundImageFix" result="shape"/>
<feColorMatrix in="SourceAlpha" type="matrix" values="0 0 0 0 0 0 0 0 0 0 0 0 0 0 0 0 0 0 127 0" result="hardAlpha"/>
<feOffset dy="-0.20699"/>
<feComposite in2="hardAlpha" operator="arithmetic" k2="-1" k3="1"/>
<feColorMatrix type="matrix" values="0 0 0 0 0 0 0 0 0 0 0 0 0 0 0 0 0 0 0.08 0"/>
<feBlend mode="normal" in2="shape" result="effect1_innerShadow_264_3044"/>
</filter>
<linearGradient id="paint0_linear_264_3044" x1="34.9858" y1="19.8712" x2="11.8333" y2="43.5347" gradientUnits="userSpaceOnUse">
<stop stop-color="#00A0FF"/>
<stop offset="0.0066" stop-color="#00A1FF"/>
<stop offset="0.2601" stop-color="#00BEFF"/>
<stop offset="0.5122" stop-color="#00D2FF"/>
<stop offset="0.7604" stop-color="#00DFFF"/>
<stop offset="1" stop-color="#00E3FF"/>
</linearGradient>
<linearGradient id="paint1_linear_264_3044" x1="51.9576" y1="35.4528" x2="17.8319" y2="35.4528" gradientUnits="userSpaceOnUse">
<stop stop-color="#FFE000"/>
<stop offset="0.4087" stop-color="#FFBD00"/>
<stop offset="0.7754" stop-color="#FFA500"/>
<stop offset="1" stop-color="#FF9C00"/>
</linearGradient>
<linearGradient id="paint2_linear_264_3044" x1="39.2558" y1="38.6186" x2="7.85803" y2="70.7093" gradientUnits="userSpaceOnUse">
<stop stop-color="#FF3A44"/>
<stop offset="1" stop-color="#C31162"/>
</linearGradient>
<linearGradient id="paint3_linear_264_3044" x1="14.5306" y1="8.097" x2="28.5506" y2="22.4264" gradientUnits="userSpaceOnUse">
<stop stop-color="#32A071"/>
<stop offset="0.0685" stop-color="#2DA771"/>
<stop offset="0.4762" stop-color="#15CF74"/>
<stop offset="0.8009" stop-color="#06E775"/>
<stop offset="1" stop-color="#00F076"/>
</linearGradient>
</defs>
</svg>
