<svg width="2356" height="167" viewBox="0 0 2356 167" fill="none" xmlns="http://www.w3.org/2000/svg">
<path d="M0.0617841 164V2.21048H34.2683V73.5464H36.4012L94.6233 2.21048H135.624L75.5846 74.6524L136.335 164H95.4133L51.095 97.483L34.2683 118.023V164H0.0617841ZM181.325 164H144.669L200.521 2.21048H244.603L300.376 164H263.72L223.194 39.1819H221.93L181.325 164ZM179.034 100.406H265.616V127.108H179.034V100.406ZM293.918 30.413V2.21048H426.793V30.413H377.261V164H343.45V30.413H293.918ZM448.676 164V2.21048H482.883V68.9645H552.323V2.21048H586.45V164H552.323V97.167H482.883V164H448.676ZM642.539 164H605.884L661.736 2.21048H705.817L761.59 164H724.935L684.409 39.1819H683.145L642.539 164ZM640.248 100.406H726.831V127.108H640.248V100.406ZM790.089 2.21048L829.194 125.133H830.695L869.878 2.21048H907.797L852.024 164H807.943L752.091 2.21048H790.089ZM933.65 164H896.994L952.846 2.21048H996.928L1052.7 164H1016.05L975.519 39.1819H974.255L933.65 164ZM931.359 100.406H1017.94V127.108H931.359V100.406ZM1207.32 58.8526H1172.72C1172.09 54.376 1170.8 50.3997 1168.85 46.9238C1166.9 43.3952 1164.4 40.3932 1161.34 37.9179C1158.29 35.4426 1154.76 33.5467 1150.76 32.23C1146.81 30.9134 1142.52 30.2551 1137.88 30.2551C1129.51 30.2551 1122.21 32.3354 1116 36.496C1109.78 40.6039 1104.97 46.6078 1101.54 54.5077C1098.12 62.3549 1096.41 71.8874 1096.41 83.1052C1096.41 94.6391 1098.12 104.33 1101.54 112.177C1105.02 120.024 1109.86 125.949 1116.08 129.952C1122.29 133.954 1129.48 135.955 1137.64 135.955C1142.23 135.955 1146.47 135.35 1150.36 134.138C1154.31 132.927 1157.82 131.163 1160.87 128.846C1163.92 126.476 1166.45 123.605 1168.45 120.235C1170.51 116.864 1171.93 113.019 1172.72 108.701L1207.32 108.859C1206.43 116.285 1204.19 123.447 1200.61 130.347C1197.08 137.193 1192.31 143.329 1186.31 148.753C1180.36 154.125 1173.25 158.391 1164.98 161.551C1156.76 164.658 1147.47 166.212 1137.09 166.212C1122.66 166.212 1109.76 162.947 1098.38 156.416C1087.06 149.886 1078.11 140.432 1071.52 128.056C1064.99 115.679 1061.73 100.696 1061.73 83.1052C1061.73 65.4622 1065.04 50.4524 1071.68 38.0759C1078.32 25.6995 1087.32 16.2723 1098.7 9.79437C1110.07 3.2638 1122.87 -0.00148958 1137.09 -0.00148958C1146.47 -0.00148958 1155.16 1.31516 1163.16 3.94845C1171.22 6.58174 1178.36 10.4264 1184.57 15.4823C1190.78 20.4855 1195.84 26.6211 1199.74 33.889C1203.69 41.1569 1206.22 49.4781 1207.32 58.8526ZM1231.85 164V2.21048H1266.06V68.9645H1335.5V2.21048H1369.62V164H1335.5V97.167H1266.06V164H1231.85ZM1425.71 164H1389.06L1444.91 2.21048H1488.99L1544.76 164H1508.11L1467.58 39.1819H1466.32L1425.71 164ZM1423.42 100.406H1510.01V127.108H1423.42V100.406ZM1564.24 164V2.21048H1598.44V73.5464H1600.58L1658.8 2.21048H1699.8L1639.76 74.6524L1700.51 164H1659.59L1615.27 97.483L1598.44 118.023V164H1564.24ZM1769.1 164V2.21048H1803.31V73.5464H1805.44L1863.66 2.21048H1904.66L1844.62 74.6524L1905.37 164H1864.45L1820.13 97.483L1803.31 118.023V164H1769.1ZM1950.36 164H1913.71L1969.56 2.21048H2013.64L2069.42 164H2032.76L1992.23 39.1819H1990.97L1950.36 164ZM1948.07 100.406H2034.66V127.108H1948.07V100.406ZM2062.96 30.413V2.21048H2195.83V30.413H2146.3V164H2112.49V30.413H2062.96ZM2217.72 164V2.21048H2251.92V68.9645H2321.36V2.21048H2355.49V164H2321.36V97.167H2251.92V164H2217.72Z" fill="url(#paint0_linear_264_666)" fill-opacity="0.6"/>
<defs>
<linearGradient id="paint0_linear_264_666" x1="825.276" y1="384.5" x2="829.132" y2="-9.50287" gradientUnits="userSpaceOnUse">
<stop stop-color="#865DFF"/>
<stop offset="1" stop-color="#F3F3F3" stop-opacity="0"/>
</linearGradient>
</defs>
</svg>
